<svg viewBox="0 0 52 17" xmlns="http://www.w3.org/2000/svg"><path d="M6.765 13C3.09 13 0 10.082 0 6.5S3.089 0 6.765 0c2.036 0 3.483.775 4.572 1.794l-1.282 1.25a4.727 4.727 0 00-3.29-1.27c-2.687 0-4.787 2.108-4.787 4.726s2.1 4.727 4.787 4.727c1.742 0 2.73-.685 3.368-1.3.524-.509.86-1.235.99-2.233H6.764v-1.78H12.9c.064.314.1.698.1 1.11 0 1.333-.373 2.98-1.577 4.154C10.248 12.365 8.757 13 6.765 13zM22 9c0 2.304-1.794 4-4 4s-4-1.696-4-4c0-2.317 1.794-4 4-4s4 1.683 4 4zm-1.753 0c0-1.442-1.042-2.424-2.247-2.424S15.753 7.564 15.753 9c0 1.422 1.042 2.424 2.247 2.424s2.247-.995 2.247-2.424zM31 9c0 2.304-1.794 4-4 4-2.2 0-4-1.696-4-4 0-2.317 1.794-4 4-4s4 1.683 4 4zm-1.746 0c0-1.442-1.043-2.424-2.247-2.424S24.76 7.564 24.76 9c0 1.422 1.042 2.424 2.247 2.424 1.204.007 2.247-.995 2.247-2.424zM40 5.256v7.433C40 15.75 38.183 17 36.031 17c-2.026 0-3.237-1.347-3.697-2.446l1.595-.656c.285.677.981 1.472 2.102 1.472 1.379 0 2.228-.85 2.228-2.432v-.594h-.062c-.411.504-1.205.94-2.2.94-2.09 0-3.997-1.804-3.997-4.125 0-2.335 1.915-4.16 3.996-4.16.996 0 1.79.443 2.2.927h.063v-.67H40zm-1.615 3.91c0-1.458-.982-2.529-2.228-2.529-1.267 0-2.326 1.064-2.326 2.529 0 1.444 1.058 2.494 2.326 2.494 1.246 0 2.228-1.05 2.228-2.494zM43 0v12h-2V0zm7.432 10.316l1.488.908C51.438 11.88 50.279 13 48.273 13 45.787 13 44 11.244 44 9c0-2.377 1.808-4 4.062-4 2.268 0 3.376 1.65 3.741 2.545l.197.454-5.842 2.217c.445.801 1.145 1.215 2.123 1.215.977 0 1.655-.447 2.151-1.115zm-4.587-1.442l3.909-1.483c-.22-.5-.86-.848-1.627-.848-.977 0-2.333.788-2.282 2.33z" fill="#5F6368"/></svg>